<svg id="Layer_1" data-name="Layer 1" xmlns="http://www.w3.org/2000/svg" viewBox="0 0 28.47 28.47"><defs><style>.cls-1{fill:#fff;}</style></defs><title>basketBall_Logo</title><path class="cls-1" d="M15,.36A14.24,14.24,0,1,0,29.24,14.59,14.25,14.25,0,0,0,15,.36Zm1,15.81c3.68.87,6.54,5.26,7.61,7.11A12.2,12.2,0,0,1,16,26.78ZM18.57,15c2.31-1.22,4.54-3.61,6.64-7.16A12.17,12.17,0,0,1,25,21.65C23.82,19.75,21.57,16.64,18.57,15Zm5.3-8.84c-2.58,4.55-5.2,7.12-7.88,7.67V2.41A12.19,12.19,0,0,1,23.88,6.2ZM14,2.41V13.89c-4-.69-7.16-5.73-8.11-7.44A12.2,12.2,0,0,1,14,2.41ZM4.59,8.2C5.72,10.08,8,13.31,11.09,15q-3.24,1.71-6.23,6.47A12.17,12.17,0,0,1,4.59,8.2Zm1.6,14.87c2.56-4.28,5.19-6.62,7.81-7V26.78A12.19,12.19,0,0,1,6.19,23.06Z" transform="translate(-0.76 -0.36)"/></svg>