<svg id="Layer_1" data-name="Layer 1" xmlns="http://www.w3.org/2000/svg" viewBox="0 0 29.15 28.65"><defs><style>.cls-1{fill:#fff;}</style></defs><title>message</title><path class="cls-1" d="M25.4.68H4.75A4.25,4.25,0,0,0,.5,4.92a.42.42,0,0,0,.24.38l12.91,5.94a3.88,3.88,0,0,0,3.11.06L29.39,6.06a.42.42,0,0,0,.26-.38V4.92A4.25,4.25,0,0,0,25.4.68Z" transform="translate(-0.5 -0.68)"/><path class="cls-1" d="M28,8.85,17.75,13.33a6.18,6.18,0,0,1-5.18-.1l-10.38-5A1.2,1.2,0,0,0,.5,9.33V24a5.16,5.16,0,0,0,5,5.29H24.63a5.16,5.16,0,0,0,5-5.29V10A1.2,1.2,0,0,0,28,8.85Z" transform="translate(-0.5 -0.68)"/></svg>